<?xml version="1.0" standalone="no"?>
<!DOCTYPE svg PUBLIC "-//W3C//DTD SVG 20010904//EN"
 "http://www.w3.org/TR/2001/REC-SVG-20010904/DTD/svg10.dtd">
<svg version="1.0" xmlns="http://www.w3.org/2000/svg"
 width="300.000000pt" height="251.000000pt" viewBox="0 0 300.000000 251.000000"
 preserveAspectRatio="xMidYMid meet">
<metadata>
Created by potrace 1.10, written by Peter Selinger 2001-2011
</metadata>
<g transform="translate(0.000000,251.000000) scale(0.100000,-0.100000)"
fill="#000000" stroke="none">
<path d="M110 2465 c-43 -44 -45 -45 -52 -23 -7 22 -7 22 -5 -3 1 -18 -8 -34
-28 -52 l-30 -26 40 -38 40 -38 -35 38 -35 38 25 19 c18 14 27 15 32 7 5 -8 8
-4 8 10 0 25 84 103 109 102 9 0 38 -8 64 -18 l49 -17 -100 -92 -100 -92 -7
46 c-3 25 -9 44 -11 41 -3 -3 0 -33 7 -67 6 -34 15 -57 18 -51 4 7 23 -5 46
-29 l38 -39 -28 -11 c-33 -12 -30 -14 -44 30 l-10 35 5 -42 c5 -40 4 -41 -26
-48 -17 -4 -29 -9 -27 -12 3 -2 37 5 75 18 l70 22 90 -83 c50 -46 89 -87 86
-92 -3 -4 3 -8 13 -8 13 -1 5 -13 -30 -45 -27 -25 -45 -45 -41 -45 5 0 26 17
47 38 29 27 38 32 34 17 -3 -11 -9 -35 -12 -53 -5 -26 -11 -32 -23 -27 -54 20
-174 56 -178 53 -2 -3 22 -12 53 -22 l56 -18 -94 -89 c-52 -48 -97 -88 -100
-89 -4 0 -12 28 -18 61 l-13 62 51 51 51 52 -11 57 c-7 32 -14 55 -16 53 -3
-3 0 -28 6 -57 l12 -53 -43 -43 c-23 -24 -45 -43 -49 -43 -3 0 -14 38 -24 85
-10 47 -20 83 -22 81 -3 -2 3 -43 13 -90 l18 -86 -29 -31 -30 -31 46 -41 c39
-35 49 -51 58 -96 6 -30 9 -57 6 -60 -4 -3 -27 -13 -53 -22 -37 -12 -48 -21
-49 -40 -3 -23 -2 -23 6 -3 6 13 28 28 57 38 26 9 48 15 49 13 1 -1 5 -16 8
-34 6 -32 6 -32 -24 -21 -16 6 -33 8 -36 4 -4 -3 -1 -6 5 -6 6 0 23 -5 39 -12
15 -6 33 -12 40 -14 6 -1 28 -7 48 -14 20 -7 38 -10 41 -7 2 2 -16 10 -41 17
-25 7 -50 21 -55 31 -14 25 -12 67 3 72 6 2 4 3 -5 2 -12 -2 -19 7 -23 29 -4
17 -9 40 -12 50 -4 14 7 9 40 -20 29 -25 41 -42 33 -46 -7 -5 -4 -8 7 -8 18 0
191 -149 183 -157 -2 -3 -28 3 -57 11 -29 9 -54 14 -56 12 -3 -2 30 -14 72
-27 l77 -23 -48 -42 c-27 -24 -55 -43 -61 -44 -7 0 -12 -4 -10 -9 1 -5 -35
-44 -81 -86 -53 -50 -80 -81 -74 -87 6 -6 41 0 96 18 47 15 84 30 81 32 -2 2
-40 -8 -85 -23 -45 -15 -83 -25 -86 -22 -3 2 35 40 83 84 85 77 89 79 121 70
25 -8 32 -16 33 -36 2 -25 2 -25 6 -3 3 16 9 22 20 18 8 -3 27 -8 41 -11 20
-4 18 -2 -7 8 -19 7 -38 22 -41 33 -6 16 -8 16 -11 3 -3 -14 -9 -14 -37 -5
l-33 11 46 38 45 38 -5 -33 c-3 -24 -1 -21 7 9 8 31 23 53 54 79 l44 35 44
-35 c31 -26 46 -48 54 -79 8 -30 10 -33 7 -9 l-5 33 44 -38 44 -38 -31 -11
c-27 -9 -33 -8 -38 5 -5 14 -7 13 -10 -3 -2 -11 -19 -25 -39 -33 -25 -9 -27
-12 -8 -8 14 3 33 8 41 11 11 4 17 -2 20 -18 4 -22 4 -22 6 3 1 20 8 28 34 36
31 9 35 7 120 -70 48 -44 86 -82 83 -84 -2 -3 -48 9 -101 27 -54 17 -99 29
-102 27 -7 -8 195 -67 210 -61 11 4 -8 27 -71 86 -48 44 -86 84 -85 89 2 5 -2
9 -8 9 -6 0 -33 19 -60 42 l-51 42 64 23 c58 21 54 23 -12 7 -18 -4 -3 15 60
74 47 45 94 82 105 84 12 2 -12 13 -55 26 -41 13 -81 31 -87 40 -12 14 -13 14
-13 0 0 -9 -21 -35 -47 -58 l-48 -42 -21 88 c-12 49 -22 82 -23 74 0 -8 7 -50
18 -92 l18 -77 -28 -27 -29 -28 -29 28 c-26 25 -28 32 -20 59 5 18 9 39 8 47
-1 8 -6 -5 -13 -29 l-11 -43 -48 43 -48 44 11 53 c7 29 10 56 7 58 -3 3 -8
-14 -12 -38 -11 -64 -18 -73 -84 -93 l-60 -18 -52 44 c-39 32 -48 45 -36 47
10 2 15 7 12 11 -2 5 36 45 86 91 l90 83 38 -12 c21 -6 41 -11 44 -11 2 0 10
28 17 63 10 55 17 67 56 100 l44 38 44 -38 c39 -33 46 -45 56 -100 7 -35 15
-63 17 -63 3 0 23 5 44 11 l38 12 90 -83 c50 -46 88 -87 85 -92 -3 -4 3 -8 13
-8 13 -1 4 -14 -32 -45 -27 -25 -45 -45 -40 -45 5 0 27 17 48 38 29 27 38 32
34 17 -3 -11 -8 -34 -12 -51 -5 -26 -10 -31 -28 -28 -21 4 -4 -3 100 -42 29
-10 40 -20 36 -30 -3 -8 -1 -14 5 -14 5 0 12 8 15 19 3 11 23 25 52 35 27 9
49 15 50 13 1 -1 5 -16 8 -34 6 -32 6 -32 -24 -21 -16 6 -33 8 -36 4 -4 -3 -1
-6 5 -6 6 0 23 -5 39 -12 15 -6 30 -12 33 -12 3 -1 63 -19 133 -41 l129 -39
-49 -43 c-26 -23 -54 -42 -61 -43 -6 0 -11 -4 -10 -9 2 -5 -34 -44 -80 -86
-52 -48 -80 -81 -74 -87 6 -6 48 3 111 23 56 17 100 34 98 36 -3 2 -48 -10
-102 -27 -53 -18 -99 -30 -101 -27 -3 2 35 40 83 84 85 77 89 79 121 70 25 -8
32 -16 33 -36 2 -25 2 -25 6 -3 3 16 9 22 20 18 8 -3 27 -8 41 -11 20 -4 18
-2 -7 8 -19 7 -38 22 -41 33 -6 16 -8 16 -11 3 -3 -14 -9 -14 -36 -5 l-31 11
44 38 44 38 -5 -33 c-3 -24 -1 -21 7 9 8 31 23 53 54 79 l44 35 44 -35 c31
-26 46 -48 54 -79 8 -30 10 -33 7 -9 l-5 33 45 -38 46 -38 -33 -11 c-28 -9
-34 -9 -39 5 -5 14 -7 13 -10 -3 -2 -11 -19 -25 -39 -33 -25 -9 -27 -12 -8 -8
14 3 33 8 41 11 11 4 17 -2 20 -18 4 -22 4 -22 6 3 1 20 8 28 34 36 31 9 35 7
120 -70 48 -44 86 -82 83 -84 -2 -3 -48 9 -101 27 -54 17 -99 29 -102 27 -2
-2 42 -19 98 -36 62 -20 105 -29 111 -23 5 5 -23 39 -74 87 -46 43 -82 82 -80
87 1 4 -3 8 -9 8 -6 0 -33 19 -60 42 l-51 42 64 23 c58 21 56 23 -12 7 -19 -4
-3 15 60 75 47 44 94 80 105 81 12 0 16 3 9 8 -8 4 4 21 33 46 33 29 44 34 40
20 -3 -10 -8 -33 -12 -50 -5 -26 -10 -31 -28 -28 -12 2 11 -8 52 -22 50 -18
75 -33 78 -45 7 -24 19 -24 26 0 3 12 28 27 78 45 41 14 64 24 52 22 -18 -3
-23 2 -28 28 -4 17 -9 40 -12 50 -4 14 7 9 40 -20 29 -25 41 -42 33 -46 -7 -5
-4 -8 7 -8 20 0 194 -153 180 -157 -4 -2 -55 12 -113 30 -100 31 -106 35 -118
67 l-13 35 5 -32 5 -32 -41 15 c-22 8 -46 14 -52 13 -6 0 7 -7 29 -15 22 -8
47 -17 55 -21 8 -3 17 -7 20 -7 3 -1 63 -19 133 -41 l129 -39 -49 -43 c-26
-23 -54 -42 -61 -43 -6 0 -11 -4 -10 -8 2 -5 -34 -44 -80 -87 -52 -49 -79 -82
-74 -87 6 -6 42 0 96 18 47 15 84 30 81 32 -2 2 -40 -8 -85 -23 -45 -15 -83
-25 -86 -22 -3 2 35 40 83 84 85 77 89 79 121 70 25 -8 32 -16 33 -36 2 -25 2
-25 6 -3 3 16 9 22 20 18 8 -3 27 -8 41 -11 20 -4 18 -2 -7 8 -19 7 -38 22
-41 33 -6 16 -8 16 -11 3 -3 -14 -9 -14 -37 -5 l-33 11 46 38 45 38 -5 -33
c-3 -24 -1 -21 7 9 8 31 23 53 54 79 l44 35 44 -35 c31 -26 46 -48 54 -79 8
-30 10 -33 7 -9 l-5 33 44 -38 44 -38 -31 -11 c-27 -9 -33 -8 -38 5 -5 14 -7
13 -10 -3 -2 -11 -19 -25 -39 -33 -25 -9 -27 -12 -8 -8 14 3 33 8 41 11 11 4
17 -2 20 -18 4 -22 4 -22 6 3 1 20 8 28 34 36 31 9 35 7 120 -70 48 -44 86
-82 83 -84 -8 -8 -211 60 -223 75 -7 9 -13 11 -13 5 0 -8 -14 -7 -46 4 -25 8
-47 13 -50 11 -2 -3 16 -11 41 -18 55 -15 58 -20 74 -94 l13 -60 -48 -42 -49
-42 -12 41 c-6 23 -11 35 -12 27 -1 -8 3 -29 8 -47 8 -27 6 -34 -20 -59 l-29
-28 -28 28 -29 27 24 106 c13 58 22 110 20 116 -2 6 -14 -40 -27 -101 l-23
-111 -48 40 c-27 23 -49 48 -49 57 0 14 -2 14 -9 3 -7 -10 6 -26 45 -60 54
-45 54 -47 49 -91 l-4 -45 12 38 12 39 22 -24 23 -24 -35 -34 c-30 -29 -35
-31 -36 -14 -1 16 -2 16 -7 -4 -7 -20 -14 -16 -99 60 -50 46 -92 88 -92 93 0
6 20 18 47 27 26 9 42 17 36 17 -6 1 -31 -6 -57 -15 l-46 -16 -50 43 c-34 30
-46 46 -38 51 8 5 7 8 -4 8 -13 0 -20 16 -29 64 l-12 64 48 43 c26 24 52 43
58 43 6 -1 25 -4 41 -8 27 -6 26 -5 -5 7 -31 12 -37 21 -52 73 -14 45 -17 50
-12 19 3 -22 8 -49 10 -61 4 -16 -6 -31 -43 -63 l-48 -43 -11 44 c-7 23 -12
36 -13 28 -1 -8 3 -29 8 -47 8 -27 6 -34 -20 -59 l-29 -28 -29 28 c-26 25 -28
32 -20 59 5 18 9 39 8 47 -1 8 -6 -4 -12 -27 l-12 -43 -47 41 c-27 22 -48 48
-48 57 0 15 -2 15 -10 2 -5 -8 -24 -20 -42 -27 -32 -13 -32 -13 -3 -7 17 4 35
7 41 8 6 0 32 -19 58 -43 l48 -43 -12 -64 c-9 -48 -16 -64 -29 -64 -10 0 -12
-3 -5 -8 7 -4 -6 -23 -37 -50 -47 -42 -50 -43 -85 -32 -19 7 -38 9 -41 6 -4
-3 -1 -6 5 -6 6 0 23 -5 37 -10 l27 -10 -69 -64 c-37 -35 -83 -76 -100 -91
l-33 -27 -1 24 c-1 18 -2 19 -6 4 -4 -16 -9 -14 -39 15 l-34 33 23 24 22 24
12 -39 12 -38 -4 45 c-5 44 -5 46 49 91 39 34 52 50 45 60 -7 11 -9 11 -9 -3
0 -9 -22 -34 -49 -57 l-48 -40 -23 111 c-13 61 -25 107 -27 101 -2 -6 7 -58
20 -116 l24 -106 -29 -27 -28 -28 -29 28 c-26 25 -28 32 -20 59 5 18 9 39 8
47 -1 8 -6 -4 -12 -27 l-12 -42 -49 42 -48 43 12 59 c17 75 20 80 75 95 25 7
43 15 41 18 -3 2 -25 -3 -50 -11 -31 -11 -46 -12 -46 -5 0 25 -12 -3 -17 -38
-3 -21 -11 -56 -17 -79 l-12 -40 53 -45 c53 -44 53 -46 49 -90 l-5 -45 12 38
12 39 22 -24 23 -24 -35 -34 c-30 -29 -35 -31 -36 -14 -1 16 -2 15 -8 -4 -6
-22 -12 -18 -101 63 -52 48 -94 89 -92 93 1 4 23 15 50 24 26 9 42 17 36 17
-6 1 -31 -6 -57 -15 l-46 -16 -50 43 c-34 30 -46 46 -38 51 8 5 7 8 -4 8 -13
0 -20 16 -29 64 l-12 64 48 43 c26 24 52 43 58 43 6 -1 25 -4 41 -8 29 -6 29
-6 -3 7 -18 7 -37 19 -42 27 -8 13 -10 13 -10 -2 0 -9 -21 -35 -47 -57 l-48
-41 -12 43 c-6 23 -11 35 -12 27 -1 -8 3 -29 8 -47 8 -27 6 -34 -20 -59 l-29
-28 -28 28 -29 27 24 106 c13 58 22 110 20 116 -2 6 -14 -40 -27 -101 l-23
-111 -37 29 c-61 48 -64 54 -51 104 17 69 11 78 -7 12 -17 -58 -18 -60 -67
-77 -27 -10 -45 -18 -39 -18 6 -1 31 6 55 14 l43 15 45 -42 c25 -24 47 -44 50
-45 2 -1 -2 -32 -9 -68 -9 -48 -16 -65 -29 -65 -12 0 -13 -2 -3 -8 9 -6 -2
-21 -38 -51 l-51 -43 -46 16 c-26 9 -51 16 -57 15 -6 0 10 -8 36 -17 27 -9 49
-20 50 -24 2 -4 -40 -45 -92 -93 -88 -79 -95 -83 -102 -63 -5 20 -6 20 -7 4
-1 -17 -6 -15 -36 14 l-35 34 23 24 22 24 12 -39 12 -38 -4 45 c-5 44 -5 46
49 91 39 34 52 50 45 60 -7 11 -9 11 -9 -3 0 -9 -22 -35 -49 -57 l-49 -41 -8
42 c-4 24 -9 38 -11 31 -2 -6 0 -27 5 -47 9 -31 7 -37 -19 -62 l-29 -28 -28
28 -29 27 24 106 c13 58 22 110 20 116 -2 6 -14 -40 -27 -101 l-23 -111 -48
40 c-27 23 -49 48 -49 57 0 14 -2 14 -9 3 -7 -10 5 -26 45 -60 57 -49 59 -56
41 -134 l-12 -47 -93 84 c-52 46 -93 88 -93 93 1 4 22 16 49 25 26 9 42 17 36
17 -6 1 -31 -6 -57 -15 l-46 -16 -50 43 c-34 30 -46 46 -38 51 8 5 7 8 -4 8
-13 0 -20 16 -29 64 l-12 64 48 43 c26 24 52 43 58 43 6 -1 25 -4 41 -8 27 -6
26 -5 -5 7 -31 12 -37 21 -53 73 -16 54 -16 38 -1 -34 5 -25 -1 -34 -42 -71
l-49 -43 -11 44 c-7 23 -12 34 -12 23 0 -11 3 -31 8 -45 6 -20 1 -32 -24 -58
l-30 -33 44 -38 c31 -27 48 -51 57 -82 9 -32 12 -35 8 -11 l-5 33 46 -38 46
-37 -33 -12 c-29 -9 -35 -9 -40 4 -4 13 -7 11 -11 -6 -4 -12 -2 -22 2 -22 5 0
11 -10 13 -22 4 -21 4 -21 6 3 1 20 8 28 34 36 32 10 35 8 125 -73 51 -46 92
-87 91 -90 0 -4 4 -10 9 -13 5 -3 -12 -25 -39 -49 l-49 -44 -64 22 -65 21 -14
62 c-8 34 -13 63 -12 64 1 2 41 -11 90 -27 49 -17 94 -30 99 -29 6 0 -34 16
-88 35 -55 18 -103 39 -108 46 -12 20 -10 -8 7 -77 8 -33 14 -64 15 -70 0 -5
-22 -29 -49 -52 l-48 -42 -24 111 c-12 62 -24 107 -26 101 -2 -6 7 -58 20
-116 l24 -106 -29 -28 -28 -27 45 -46 c25 -25 45 -51 45 -58 0 -7 4 -10 10 -7
5 3 43 -25 82 -62 40 -37 102 -94 137 -126 36 -31 61 -57 56 -57 -15 0 -230
72 -235 78 -3 4 -14 7 -25 8 -11 1 -33 4 -50 7 -16 4 -9 -1 18 -10 38 -13 49
-23 57 -47 9 -29 10 -29 6 -3 -2 15 -2 27 1 27 2 0 53 -16 113 -36 61 -19 114
-33 119 -30 5 3 12 -2 15 -11 6 -14 16 -8 56 32 l50 49 50 -49 c39 -39 51 -45
55 -32 4 8 12 14 18 11 7 -2 50 9 97 25 47 16 80 30 74 30 -6 1 -44 -10 -84
-24 -40 -14 -77 -25 -82 -25 -8 0 86 91 148 143 28 23 34 25 66 15 27 -8 34
-15 33 -32 -2 -15 -1 -16 2 -3 3 14 11 17 26 13 55 -15 68 -15 29 0 -43 16
-43 16 -38 58 l5 41 -11 -38 c-9 -35 -13 -38 -37 -32 -39 10 -39 14 3 52 21
20 34 34 28 32 -6 -2 -55 -44 -109 -94 -54 -49 -116 -107 -138 -127 l-41 -37
-12 58 c-7 31 -12 62 -12 68 0 5 23 29 50 52 l50 42 51 -16 c28 -9 52 -15 55
-13 2 3 -21 12 -50 21 -49 16 -55 21 -65 55 l-10 37 5 -38 c5 -35 2 -41 -43
-81 -46 -42 -48 -43 -55 -23 -6 18 -7 17 -4 -6 2 -20 -3 -33 -22 -47 -31 -25
-33 -25 -64 0 l-25 19 24 107 c13 59 22 111 20 117 -2 6 -14 -40 -27 -101
l-23 -112 -46 42 c-25 23 -47 45 -49 48 -3 7 24 130 30 135 2 1 23 10 48 19
25 9 32 13 15 9 -16 -3 -40 -7 -52 -7 -13 -1 -23 -4 -23 -8 0 -8 -230 -82
-235 -76 -5 6 265 243 275 240 5 -1 10 4 10 12 0 15 76 86 92 86 4 0 25 -16
46 -35 29 -25 41 -47 50 -85 7 -28 12 -55 12 -60 0 -5 -25 -17 -55 -26 -52
-17 -58 -17 -111 0 l-56 17 6 42 c4 36 3 34 -9 -13 -8 -30 -13 -62 -11 -70 2
-8 4 -5 5 8 1 25 6 26 52 10 37 -13 59 -30 59 -47 0 -6 5 -11 10 -11 6 0 10 5
10 11 0 17 22 34 59 47 46 16 51 15 52 -10 0 -13 3 -18 5 -12 3 7 -2 40 -10
75 -8 35 -13 65 -12 66 4 4 274 -241 271 -245 -7 -8 -235 69 -235 79 0 6 -4 7
-10 4 -5 -3 -26 -1 -47 4 -20 6 -39 9 -41 6 -3 -2 16 -9 42 -16 39 -9 48 -16
56 -43 9 -29 10 -30 6 -3 -2 18 1 27 8 24 6 -2 64 -21 129 -41 89 -28 117 -41
118 -54 0 -14 2 -14 9 3 4 11 27 38 49 60 l41 39 45 -44 c25 -24 45 -50 45
-58 0 -7 4 -11 9 -8 10 6 89 -60 81 -67 -3 -3 -17 -8 -31 -12 -24 -6 -28 -3
-37 32 l-11 38 5 -41 c5 -42 5 -42 -38 -58 -39 -15 -26 -15 29 0 15 4 23 1 26
-13 3 -13 4 -12 2 3 -1 17 6 24 33 32 32 10 38 8 66 -15 72 -61 158 -143 149
-143 -5 0 -43 11 -83 25 -40 14 -78 25 -84 24 -6 0 27 -14 74 -30 47 -16 90
-27 97 -25 6 3 14 -3 18 -11 4 -13 16 -7 55 32 l50 49 50 -49 c40 -40 50 -46
56 -32 3 9 10 14 15 11 5 -3 58 11 119 30 60 20 111 36 113 36 3 0 3 -12 1
-28 -4 -25 -3 -25 6 4 8 25 19 33 63 47 65 21 67 21 67 2 0 -8 5 -15 10 -15 6
0 10 7 10 15 0 19 2 19 67 -2 44 -14 55 -22 63 -47 9 -29 10 -29 6 -4 -2 16
-2 28 1 28 2 0 53 -16 113 -36 61 -19 114 -33 119 -30 5 3 12 -2 15 -11 6 -14
16 -8 56 32 l50 49 50 -49 c40 -40 50 -46 56 -32 3 9 10 14 15 11 10 -6 181
47 174 54 -2 2 -40 -8 -85 -23 -45 -15 -83 -25 -84 -24 -2 2 58 60 132 128 74
68 130 122 124 120 -6 -2 -55 -44 -109 -94 -201 -185 -183 -171 -184 -144 -1
19 -2 20 -6 5 -4 -16 -9 -14 -39 15 l-34 33 23 24 22 24 12 -39 12 -38 -5 45
c-5 40 -3 47 23 69 15 13 38 33 50 43 21 19 23 20 73 3 28 -9 53 -15 56 -13 2
3 -21 12 -50 21 -49 16 -55 21 -65 55 l-10 37 4 -40 c4 -38 2 -43 -44 -82
l-49 -43 -13 68 c-7 37 -14 62 -16 56 -2 -7 2 -39 10 -73 14 -61 14 -62 -11
-81 -31 -25 -33 -25 -64 0 l-25 19 24 107 c13 59 22 111 20 117 -2 6 -14 -40
-27 -101 l-23 -111 -48 42 c-46 39 -48 44 -44 82 l4 40 -10 -37 c-10 -34 -16
-39 -65 -55 -29 -9 -52 -18 -50 -21 3 -2 27 4 55 13 l51 16 51 -42 c50 -43 51
-44 45 -89 l-5 -45 12 38 12 39 22 -24 23 -24 -34 -33 c-30 -29 -35 -31 -39
-15 -4 15 -5 14 -6 -5 -1 -27 18 -41 -182 142 -53 48 -105 94 -115 101 -16 13
-6 18 101 51 66 21 125 40 131 42 7 3 10 -6 8 -24 -4 -27 -4 -27 6 3 8 24 19
34 57 47 27 9 35 14 18 10 -16 -3 -40 -7 -52 -7 -13 -1 -23 -4 -23 -8 0 -7
-215 -78 -234 -78 -4 0 19 24 50 52 32 29 94 86 137 126 44 40 81 72 82 70 2
-2 -3 -32 -11 -67 -8 -35 -13 -68 -10 -75 2 -6 5 -1 5 12 1 25 6 26 52 10 37
-13 59 -30 59 -47 0 -6 5 -11 10 -11 6 0 10 5 10 11 0 17 22 34 59 47 46 16
51 15 52 -10 0 -13 3 -18 5 -11 3 6 1 26 -5 45 -5 18 -10 25 -10 16 -1 -12
-19 -23 -56 -34 -52 -17 -58 -17 -110 0 -30 9 -55 21 -55 26 0 5 5 32 12 60 9
40 21 59 52 86 22 19 43 34 48 34 14 0 88 -72 88 -86 0 -8 5 -13 10 -12 10 3
280 -234 275 -240 -5 -6 -235 68 -235 76 0 4 -17 8 -38 8 l-37 1 33 -10 c23
-7 35 -19 42 -41 9 -30 10 -30 6 -3 -2 18 1 27 8 24 6 -2 64 -21 129 -41 64
-20 117 -41 117 -47 0 -6 -5 -30 -11 -55 -11 -43 -13 -45 -43 -40 l-31 6 30
-13 c23 -9 30 -18 28 -37 -1 -24 -1 -24 4 -2 4 19 9 23 26 18 55 -15 68 -15
30 0 -48 17 -47 17 -32 82 8 33 25 61 55 92 l44 46 -28 27 -29 28 24 106 c13
58 22 110 20 116 -2 6 -14 -39 -26 -101 l-24 -111 -48 42 c-27 23 -49 48 -49
55 0 11 -3 11 -14 -1 -8 -8 -35 -20 -60 -27 -26 -7 -44 -15 -42 -17 3 -3 27 3
55 12 l51 16 50 -43 c50 -42 51 -44 46 -88 l-5 -45 12 38 12 39 22 -24 23 -24
-34 -33 c-30 -29 -35 -31 -39 -15 -4 15 -5 14 -6 -5 -1 -23 -1 -23 -38 9 -21
18 -84 76 -140 128 -57 52 -111 101 -120 108 -11 8 -13 13 -5 14 6 0 11 4 10
8 -2 4 39 46 91 93 93 84 96 86 128 76 26 -8 33 -16 34 -36 2 -24 2 -24 6 -3
2 12 7 22 10 22 17 0 83 -24 83 -30 0 -4 -20 -13 -45 -20 -25 -7 -43 -15 -41
-18 3 -2 26 3 52 12 58 19 52 20 57 -1 3 -12 5 -9 6 8 1 22 -5 27 -54 43 -38
12 -55 22 -56 34 0 15 -1 15 -7 1 -6 -14 -12 -14 -41 -5 l-33 12 46 37 46 38
-5 -33 c-4 -25 -2 -22 8 10 8 31 26 55 57 82 l45 39 -31 31 -31 31 29 130 c17
72 28 136 25 143 -3 7 -26 19 -51 26 -26 7 -49 16 -51 21 -3 4 0 31 6 61 9 44
19 60 58 95 l46 42 -31 31 -30 31 30 135 c26 117 28 136 16 144 -8 6 -19 10
-25 10 -5 0 -4 -4 3 -8 9 -6 -1 -13 -29 -21 -22 -7 -47 -15 -55 -18 -11 -4
-13 3 -9 28 4 29 3 30 -4 9 -20 -57 -17 -60 54 -34 36 13 65 20 65 16 1 -20
-54 -252 -59 -252 -4 0 -26 19 -49 43 l-43 43 12 53 c6 29 9 54 6 57 -2 3 -10
-22 -16 -55 l-12 -60 51 -47 c27 -26 51 -56 51 -68 1 -18 2 -18 6 -3 4 18 6
17 29 -4 13 -12 24 -26 24 -30 0 -3 -16 -19 -36 -34 l-35 -27 5 39 5 38 -11
-42 c-6 -24 -14 -43 -17 -43 -3 1 -48 41 -100 89 l-94 89 56 18 c31 10 55 19
53 22 -4 3 -124 -33 -178 -53 -12 -5 -18 1 -23 27 -3 18 -9 42 -12 53 -4 15 5
10 34 -17 21 -21 43 -38 48 -38 5 0 -13 20 -40 45 -36 31 -45 44 -32 45 10 0
16 4 13 8 -3 5 36 46 86 92 l90 83 70 -22 c38 -13 72 -20 75 -18 2 3 -10 8
-27 12 -30 7 -31 8 -26 48 l5 42 -10 -35 c-14 -44 -11 -42 -44 -30 l-28 11 38
39 c22 23 42 35 45 30 4 -6 14 26 24 70 l17 80 24 -16 c14 -9 25 -19 25 -22 0
-3 -15 -22 -32 -42 -32 -34 -31 -34 7 3 l40 38 -30 27 c-18 16 -29 36 -29 50
2 20 1 20 -3 2 -4 -19 -9 -17 -53 24 -27 25 -55 46 -63 46 -8 0 -40 -9 -72
-20 l-59 -20 -24 22 -25 23 19 -27 c10 -15 22 -28 26 -28 7 0 36 -26 158 -139
19 -18 27 -30 17 -27 -9 3 -64 20 -121 37 -104 32 -104 32 -114 70 -9 36 -8
39 17 49 l26 10 -26 -5 c-22 -4 -28 0 -37 28 l-11 32 5 -35 c5 -36 5 -36 -50
-53 -53 -17 -59 -17 -112 0 -55 17 -55 17 -50 53 l5 35 -11 -32 c-9 -28 -15
-32 -37 -28 l-26 5 26 -10 c25 -10 26 -13 17 -49 -10 -38 -10 -38 -114 -70
-57 -17 -112 -34 -121 -38 -21 -7 145 153 167 162 8 3 24 18 34 33 l19 27 -25
-23 -24 -22 -59 20 c-32 11 -65 20 -74 20 -9 0 -37 -20 -61 -45 -43 -44 -45
-45 -52 -23 -7 22 -7 22 -5 -2 1 -17 -7 -33 -25 -48 l-28 -24 -27 24 c-19 15
-27 31 -26 48 2 24 2 24 -5 2 -7 -22 -9 -21 -52 23 -24 25 -52 45 -61 45 -9 0
-42 -9 -74 -20 l-59 -20 -24 22 -25 23 19 -27 c10 -15 26 -30 34 -33 22 -9
188 -169 167 -162 -9 4 -64 21 -121 38 -104 32 -104 32 -114 70 -9 36 -8 39
17 49 l26 10 -26 -5 c-22 -4 -28 0 -37 28 l-11 32 5 -35 c5 -36 5 -36 -50 -53
-53 -17 -59 -17 -112 0 -55 17 -55 17 -50 53 l5 35 -11 -32 c-9 -28 -15 -32
-37 -28 l-26 5 26 -10 c25 -10 26 -13 17 -49 -10 -38 -10 -38 -114 -70 -57
-17 -112 -34 -121 -38 -21 -7 145 153 167 162 8 3 24 18 34 33 l19 27 -25 -23
-24 -22 -59 20 c-32 11 -64 20 -72 20 -8 0 -36 -21 -63 -46 -46 -43 -49 -44
-53 -22 -5 21 -5 21 -4 -2 1 -16 -8 -33 -25 -48 l-28 -24 -27 24 c-19 15 -27
31 -26 48 2 24 2 24 -5 2 -7 -22 -9 -21 -52 23 -24 25 -52 45 -61 45 -9 0 -42
-9 -74 -20 l-59 -20 -24 22 -25 23 19 -27 c10 -15 24 -28 29 -28 6 -1 51 -40
100 -87 50 -47 82 -83 72 -80 -9 4 -64 21 -121 38 -104 32 -104 32 -114 70 -9
36 -8 39 17 49 l26 10 -26 -5 c-22 -4 -28 0 -37 28 l-11 32 5 -35 c5 -36 5
-36 -50 -53 -53 -17 -59 -17 -112 0 -55 17 -55 17 -50 53 l5 35 -11 -32 c-9
-28 -15 -32 -37 -28 l-26 5 26 -10 c25 -10 26 -13 17 -49 -10 -38 -10 -38
-114 -70 -57 -17 -112 -34 -121 -38 -21 -7 145 153 167 162 8 3 24 18 34 33
l19 27 -25 -23 -24 -22 -59 20 c-32 11 -65 20 -74 20 -9 0 -37 -20 -61 -45z
m776 -8 l47 -43 -13 -66 -13 -67 -100 92 -99 91 49 17 c69 25 76 24 129 -24z
m357 24 l49 -17 -99 -91 -100 -92 -13 67 -13 66 47 43 c53 48 60 49 129 24z
m641 -22 c28 -25 46 -49 46 -62 0 -13 3 -17 8 -10 5 8 14 6 31 -8 l24 -20 -34
-37 -34 -37 38 34 37 35 38 -35 37 -34 -34 37 -34 37 24 20 c17 14 26 16 31 8
5 -7 8 -3 8 10 0 25 84 103 109 102 9 0 38 -8 64 -18 l49 -17 -100 -92 -100
-92 -7 46 c-3 25 -9 44 -11 41 -3 -3 0 -33 7 -67 6 -34 15 -57 18 -51 4 7 23
-5 46 -29 l38 -39 -28 -11 c-33 -12 -30 -14 -44 30 l-10 35 5 -42 c5 -40 4
-41 -26 -48 -17 -4 -29 -9 -27 -12 3 -2 37 5 75 18 l70 22 91 -83 c50 -46 90
-85 88 -86 -2 -2 -52 13 -111 32 -60 19 -111 33 -113 30 -3 -3 12 -9 33 -15
22 -6 79 -24 127 -40 l88 -28 -47 -42 c-26 -22 -43 -41 -38 -41 4 0 26 17 47
38 29 27 38 32 34 17 -3 -11 -9 -35 -12 -53 -5 -26 -11 -32 -23 -27 -54 20
-174 56 -178 53 -2 -3 22 -12 53 -22 l56 -18 -94 -89 c-52 -48 -97 -88 -100
-89 -4 0 -12 28 -18 61 l-13 62 51 51 51 52 -11 57 c-7 32 -14 55 -16 53 -3
-3 0 -28 6 -57 l12 -53 -43 -43 c-23 -24 -45 -43 -49 -43 -3 0 -14 38 -24 85
-10 47 -20 83 -22 81 -3 -2 3 -43 13 -90 l18 -86 -27 -27 -27 -28 -27 28 -27
27 18 86 c10 47 16 88 13 90 -2 2 -12 -34 -22 -81 -10 -47 -21 -85 -24 -85 -4
0 -26 19 -49 43 l-43 43 12 53 c6 29 9 54 6 57 -2 2 -9 -21 -16 -53 l-11 -57
51 -52 51 -51 -13 -62 c-6 -33 -14 -61 -18 -61 -3 1 -48 41 -100 89 l-94 89
56 18 c31 10 55 19 53 22 -4 3 -124 -33 -177 -53 -13 -5 -19 3 -28 32 l-10 38
5 -40 c3 -22 7 -41 9 -43 2 -2 21 2 43 9 l41 12 90 -83 c50 -45 88 -86 86 -90
-3 -5 2 -10 12 -12 12 -2 3 -15 -36 -47 l-52 -44 -60 18 c-66 20 -73 29 -84
93 -4 24 -9 41 -12 38 -3 -2 0 -29 7 -58 l11 -53 -48 -44 -48 -43 -11 43 c-7
24 -12 37 -13 29 -1 -8 3 -29 8 -47 8 -27 6 -34 -20 -59 l-29 -28 -29 28 -28
27 18 77 c11 42 18 84 18 92 -1 8 -11 -25 -23 -74 l-21 -89 -48 44 -48 44 11
53 c7 29 10 56 7 58 -3 3 -8 -14 -12 -38 -11 -64 -18 -73 -84 -93 l-60 -18
-52 44 c-39 32 -48 45 -36 47 10 2 15 7 12 11 -2 5 36 45 86 91 l90 83 38 -12
c21 -6 41 -11 44 -11 2 0 10 28 17 63 10 55 17 67 56 100 l44 38 45 -38 c24
-21 45 -47 45 -58 0 -14 3 -16 8 -8 6 9 18 3 42 -22 19 -19 38 -35 43 -35 5 0
-13 20 -40 45 -35 32 -43 44 -30 45 10 0 16 4 13 8 -3 5 35 46 85 92 l91 83
70 -22 c38 -13 72 -20 75 -18 2 3 -10 8 -27 12 -30 7 -31 8 -26 48 l5 42 -10
-35 c-14 -44 -11 -42 -44 -30 l-28 11 38 39 c23 24 42 36 46 29 3 -6 12 17 18
51 7 34 10 64 7 67 -2 3 -8 -16 -11 -41 l-7 -46 -100 92 -100 92 49 17 c69 25
75 24 127 -22z m1002 -2 l47 -43 -13 -67 c-13 -61 -19 -72 -65 -116 l-51 -49
-67 21 -66 21 -14 60 c-7 34 -12 62 -11 64 1 2 55 -13 119 -33 64 -20 121 -35
127 -33 6 2 -33 44 -87 93 l-97 89 49 17 c69 25 76 24 129 -24z m-2433 -43
c26 -9 45 -19 42 -23 -8 -15 -46 -194 -42 -205 2 -5 12 31 22 82 10 51 21 92
25 92 3 0 17 -53 31 -117 l25 -118 -29 -24 -28 -24 -24 23 c-14 13 -25 35 -26
49 -1 25 -1 25 -7 3 -7 -22 -9 -21 -55 26 l-48 48 12 53 c6 29 9 54 6 57 -2 3
-10 -22 -16 -54 l-12 -60 -57 -16 c-32 -9 -65 -16 -72 -16 -8 0 -34 19 -57 42
l-43 42 138 42 c144 45 236 78 190 69 -14 -3 -34 -8 -44 -12 -14 -5 -16 -3
-11 11 4 10 7 24 7 32 0 18 16 18 73 -2z m167 2 c0 -8 3 -22 7 -32 5 -14 3
-16 -11 -11 -10 4 -30 9 -44 12 -15 3 -8 -2 15 -11 36 -13 44 -21 52 -52 25
-97 25 -94 -26 -144 l-48 -48 -29 131 c-15 72 -25 134 -21 137 9 10 67 30 88
31 9 1 17 -5 17 -13z m843 -5 c15 -6 27 -16 27 -23 0 -7 -13 -68 -28 -136
l-27 -122 -48 48 -48 48 12 53 c6 29 9 54 6 57 -2 3 -9 -22 -16 -54 l-11 -58
-68 -21 -67 -22 -47 47 -48 46 138 42 c144 45 236 78 190 69 -14 -3 -34 -8
-44 -12 -14 -5 -16 -3 -11 11 4 10 7 25 7 33 0 17 29 15 83 -6z m157 5 c0 -8
3 -22 7 -32 5 -14 3 -16 -11 -11 -10 4 -30 9 -44 12 -46 9 46 -24 190 -69
l138 -42 -43 -42 c-23 -23 -49 -42 -57 -42 -7 0 -40 7 -72 16 l-57 16 -12 60
c-6 32 -14 57 -16 54 -3 -3 0 -28 6 -57 l12 -53 -48 -48 -48 -48 -26 119 c-15
66 -29 127 -32 135 -4 10 6 19 36 30 54 19 77 19 77 2z m833 -2 c26 -9 45 -19
42 -23 -8 -15 -46 -194 -42 -205 2 -5 12 31 22 82 10 51 21 92 25 92 6 0 50
-195 50 -221 0 -9 -11 -26 -25 -39 l-24 -23 -28 24 c-19 16 -27 32 -26 49 2
24 2 24 -5 2 -7 -22 -9 -21 -55 26 l-48 48 12 53 c6 29 9 54 6 57 -2 3 -10
-22 -16 -54 l-12 -60 -57 -16 c-32 -9 -65 -16 -72 -16 -8 0 -34 19 -57 42
l-43 42 138 42 c144 45 236 78 190 69 -14 -3 -34 -8 -44 -12 -14 -5 -16 -3
-11 11 4 10 7 24 7 32 0 18 16 18 73 -2z m167 2 c0 -8 3 -22 7 -32 5 -14 3
-16 -11 -11 -10 4 -30 9 -44 12 -15 3 -8 -2 15 -11 44 -16 46 -19 63 -98 l11
-49 -43 -44 c-23 -24 -45 -43 -49 -43 -9 0 -62 250 -54 258 9 10 67 30 88 31
9 1 17 -5 17 -13z m-1630 -54 c0 -3 -15 -22 -32 -42 l-33 -35 38 34 37 35 38
-35 37 -34 -32 35 c-18 20 -33 39 -33 42 0 3 11 13 25 22 l24 16 17 -80 c10
-44 20 -76 24 -70 3 5 23 -7 45 -30 l38 -39 -28 -11 c-33 -12 -30 -14 -44 30
l-10 35 5 -42 c5 -40 4 -41 -26 -48 -17 -4 -29 -9 -27 -12 3 -2 37 5 75 18
l70 22 90 -83 c50 -46 89 -87 86 -92 -3 -4 3 -8 13 -8 12 1 -16 33 -81 94
l-100 94 56 16 c31 9 61 16 67 16 21 0 101 -82 101 -104 0 -15 3 -17 9 -8 6
10 13 9 32 -7 24 -19 24 -19 4 -41 -11 -12 -28 -26 -38 -32 -16 -8 -18 -6 -13
29 4 30 3 27 -7 -11 -10 -39 -23 -58 -62 -93 -27 -23 -45 -43 -40 -43 5 0 27
17 48 38 29 27 38 32 34 17 -3 -11 -9 -35 -12 -53 -5 -26 -11 -32 -23 -27 -54
20 -174 56 -178 53 -2 -3 22 -12 53 -22 l56 -18 -94 -89 c-52 -48 -97 -88
-100 -89 -3 0 -11 19 -17 43 l-11 42 5 -39 5 -38 -30 21 c-43 31 -46 39 -20
67 21 23 24 23 30 7 7 -16 8 -16 8 3 1 12 23 42 51 68 l51 47 -12 60 c-6 33
-14 58 -16 55 -3 -3 0 -28 6 -57 l12 -53 -43 -43 c-23 -24 -45 -43 -48 -43 -4
0 -19 55 -34 122 -15 67 -29 124 -31 127 -8 8 -15 -4 -19 -35 -2 -16 -1 -21 1
-11 9 36 19 14 44 -98 l25 -115 -28 -27 -28 -27 -28 28 -29 27 19 80 c11 44
17 86 15 92 -2 6 -11 -29 -21 -76 -10 -48 -22 -87 -25 -87 -4 0 -26 19 -49 43
l-43 43 12 53 c6 29 9 54 6 57 -2 2 -9 -21 -16 -53 l-11 -57 50 -51 c27 -28
51 -59 51 -70 1 -18 2 -18 6 -2 4 18 6 17 29 -4 13 -12 24 -26 24 -30 0 -3
-16 -19 -36 -34 l-35 -27 5 39 5 38 -11 -42 c-6 -24 -14 -43 -17 -43 -3 1 -48
41 -100 89 l-94 89 56 18 c31 10 55 19 53 22 -4 3 -124 -33 -178 -53 -12 -5
-18 1 -23 27 -3 18 -9 42 -12 53 -4 15 5 10 34 -17 21 -21 43 -38 48 -38 5 0
-13 20 -40 43 -39 35 -52 54 -62 93 -10 40 -11 42 -7 10 l5 -38 -30 21 c-44
31 -47 42 -21 63 18 15 25 16 31 6 6 -9 9 -7 9 8 0 22 80 104 101 104 6 0 36
-7 67 -16 l56 -16 -100 -94 c-54 -51 -93 -93 -85 -94 18 0 242 72 237 77 -2 2
-52 -12 -112 -31 -59 -19 -109 -34 -111 -33 -1 2 38 41 88 87 l91 83 70 -22
c38 -13 72 -20 75 -18 2 3 -10 8 -27 12 -30 7 -31 8 -26 48 l5 42 -10 -35
c-14 -44 -11 -42 -44 -30 l-28 11 38 39 c22 23 42 35 45 30 4 -6 14 26 24 70
l17 80 24 -16 c14 -9 25 -19 25 -22z m538 -105 c27 -128 27 -128 -3 -157 l-25
-23 -25 23 c-14 13 -25 30 -25 39 0 25 44 221 50 221 3 0 15 -46 28 -103z
m-750 55 l123 -38 -49 -46 -49 -46 -64 20 c-35 12 -65 21 -66 22 -6 4 -29 126
-24 126 3 0 61 -17 129 -38z m-391 -144 c24 -23 43 -51 43 -63 0 -16 2 -17 10
-5 8 13 12 12 31 -6 24 -25 21 -34 -22 -65 l-30 -21 5 38 c5 35 4 35 -7 -7
l-12 -47 -99 93 -100 93 50 15 c74 23 85 21 131 -25z m1351 26 l56 -16 -100
-93 -99 -93 -12 47 c-11 41 -12 42 -7 8 5 -35 3 -37 -13 -29 -10 6 -27 20 -38
32 -20 22 -20 22 4 41 19 16 26 17 32 7 6 -9 9 -7 9 7 0 22 77 105 98 105 8 0
39 -7 70 -16z m647 -25 c26 -24 45 -51 45 -63 0 -17 2 -18 10 -6 8 13 12 12
31 -6 24 -25 21 -34 -22 -65 l-30 -21 5 38 c5 35 4 35 -7 -7 l-12 -47 -99 93
-100 93 50 15 c73 22 80 21 129 -24z m353 25 l56 -16 -100 -93 -99 -93 -12 47
c-11 42 -12 42 -7 7 l5 -38 -30 21 c-44 31 -47 42 -21 63 18 15 25 16 31 6 6
-9 9 -7 9 8 0 22 80 104 101 104 6 0 36 -7 67 -16z m-191 -172 c35 -33 43 -47
53 -100 7 -34 15 -62 18 -62 2 0 22 5 43 11 l38 12 90 -83 c50 -46 88 -87 85
-92 -3 -4 3 -8 13 -8 13 -1 4 -14 -32 -45 -27 -25 -45 -45 -40 -45 5 0 27 17
48 38 29 27 38 32 34 17 -3 -11 -8 -34 -12 -51 -4 -22 -11 -31 -23 -29 -9 1
-11 0 -4 -2 6 -3 12 -17 12 -32 0 -15 -6 -34 -12 -43 -13 -16 -215 -84 -224
-75 -8 7 160 154 181 159 12 2 -9 13 -55 27 -41 12 -81 30 -87 39 -12 14 -13
14 -13 0 0 -9 -21 -35 -47 -58 l-48 -42 -21 88 c-12 49 -22 82 -23 74 0 -8 7
-50 18 -92 l18 -77 -28 -27 -29 -28 -29 28 -28 27 18 77 c11 42 18 84 18 92
-1 8 -11 -25 -23 -74 l-21 -89 -48 44 -48 44 11 53 c7 29 10 56 7 58 -3 3 -8
-14 -12 -38 -11 -64 -18 -73 -84 -93 l-60 -18 -52 44 c-39 32 -48 45 -36 47
10 2 15 7 12 11 -2 5 36 45 86 91 l90 83 38 -12 c21 -6 41 -11 43 -11 3 0 11
28 18 62 10 53 18 67 53 100 23 20 44 37 47 37 3 0 24 -17 47 -37z m-2473
-266 l7 -38 -30 21 c-43 31 -46 39 -20 67 26 28 30 24 43 -50z m1886 -6 c-19
-16 -36 -27 -38 -26 -1 2 3 27 9 56 l11 52 27 -26 26 -27 -35 -29z m114 7 l7
-39 -35 27 c-20 15 -36 30 -36 33 0 3 10 16 22 29 25 27 29 23 42 -50z m-1028
-25 c34 -30 44 -47 53 -91 6 -30 8 -58 4 -61 -5 -4 -29 -14 -55 -23 -44 -14
-52 -14 -95 0 -27 9 -51 19 -56 23 -4 3 -2 31 4 61 9 44 19 61 53 91 22 20 43
37 46 37 3 0 24 -17 46 -37z m1000 0 c34 -30 44 -47 53 -91 6 -30 8 -58 4 -61
-5 -4 -29 -14 -55 -23 -44 -14 -52 -14 -95 0 -27 9 -51 19 -56 23 -4 3 -2 31
4 61 9 44 19 61 53 91 22 20 43 37 46 37 3 0 24 -17 46 -37z m-870 -135 c-7
-6 -6 -7 4 -4 9 2 56 -32 110 -81 l95 -84 -88 85 -88 85 63 21 63 21 48 -48
49 -49 -12 -61 c-7 -34 -17 -62 -23 -62 -5 0 -64 17 -130 37 -131 41 -126 36
-147 133 -6 30 -14 64 -17 74 -4 14 7 9 40 -20 30 -26 41 -42 33 -47z m-792
-6 l48 -48 -12 -61 c-10 -48 -16 -60 -30 -59 -10 1 -17 4 -14 8 2 4 -35 43
-82 87 l-87 79 59 21 c33 11 61 21 64 21 3 1 27 -21 54 -48z m354 24 l54 -17
-86 -80 c-47 -44 -84 -84 -80 -89 3 -5 -3 -9 -14 -9 -16 0 -22 12 -31 61 l-13
62 49 49 c26 26 52 47 58 45 5 -2 34 -12 63 -22z m1000 0 l54 -17 -86 -80
c-47 -44 -84 -83 -82 -87 3 -4 -4 -7 -14 -8 -14 -1 -20 11 -30 59 l-12 61 49
49 c26 26 52 47 58 45 5 -2 34 -12 63 -22z m646 -24 l48 -48 -12 -61 c-10 -48
-16 -60 -30 -59 -10 1 -17 4 -14 8 2 4 -35 43 -82 87 l-87 79 59 21 c33 11 61
21 64 21 3 1 27 -21 54 -48z m355 24 l53 -17 -93 -89 c-52 -48 -97 -88 -100
-89 -4 0 -12 28 -18 61 l-13 62 49 49 c26 26 52 47 58 45 5 -2 34 -12 64 -22z
m220 -71 c27 -11 32 -18 29 -36 -55 -269 -83 -378 -97 -378 -12 0 -13 -2 -3
-8 9 -6 -2 -21 -38 -51 l-51 -43 -46 16 c-26 9 -51 16 -57 15 -6 0 10 -8 36
-17 27 -9 48 -21 49 -25 0 -5 -41 -47 -93 -93 -86 -78 -93 -82 -100 -62 -5 20
-6 20 -7 4 -1 -17 -6 -15 -36 14 l-35 34 23 24 22 24 12 -39 12 -38 -4 45 c-5
44 -5 46 49 91 30 26 53 49 51 51 -2 2 -11 31 -19 65 l-14 61 27 -8 c14 -5 62
-20 107 -35 123 -39 128 -27 26 67 -48 44 -86 84 -84 89 1 5 -4 9 -10 9 -7 1
-35 21 -63 45 -35 32 -45 45 -32 45 11 0 15 4 11 12 -4 7 -3 8 5 4 6 -4 57 7
114 24 56 18 107 33 112 35 6 1 23 7 38 13 16 7 33 12 39 12 6 0 9 3 5 6 -3 4
-20 1 -37 -5 -28 -9 -31 -9 -26 5 3 9 6 25 6 35 0 22 10 21 79 -7z m-2499 -83
c-19 -16 -36 -28 -38 -26 -1 1 3 26 9 55 l11 52 26 -26 26 -26 -34 -29z m114
4 l8 -40 -29 25 c-15 14 -32 28 -37 32 -6 5 0 19 14 33 27 29 31 26 44 -50z
m886 -4 c-19 -16 -36 -28 -38 -26 -1 1 3 26 9 55 l11 52 26 -26 26 -26 -34
-29z m114 4 l8 -40 -29 25 c-15 14 -32 28 -37 32 -6 5 0 19 14 33 27 29 31 26
44 -50z m886 -4 c-19 -16 -36 -28 -38 -26 -1 1 3 26 9 55 l11 52 26 -26 26
-26 -34 -29z m114 4 l8 -40 -29 25 c-15 14 -32 28 -37 32 -6 5 0 19 14 33 27
29 31 26 44 -50z m-2500 -290 l8 -40 -34 30 c-18 17 -35 31 -37 33 -2 1 6 13
19 27 27 29 31 26 44 -50z m885 -3 c-19 -17 -35 -29 -37 -28 -1 2 3 27 9 56
l11 52 25 -25 26 -25 -34 -30z m115 3 l8 -40 -34 30 c-18 17 -35 31 -37 33 -2
1 6 13 19 27 27 29 31 26 44 -50z m885 -3 c-19 -17 -35 -29 -37 -28 -1 2 3 27
9 56 l11 52 25 -25 26 -25 -34 -30z m115 3 l8 -40 -34 30 c-18 17 -35 31 -37
33 -2 1 6 13 19 27 27 29 31 26 44 -50z m885 -3 c-19 -17 -35 -29 -37 -28 -1
2 3 27 9 56 l11 52 25 -25 26 -25 -34 -30z m-1913 -16 c26 -22 43 -48 51 -77
10 -35 12 -37 8 -10 l-5 35 22 -20 c124 -109 262 -240 260 -246 -1 -5 4 -8 10
-8 8 -1 6 -6 -5 -14 -9 -7 -63 -56 -120 -108 -56 -52 -119 -110 -139 -128 -38
-32 -38 -32 -39 -9 -1 19 -2 20 -6 5 -4 -16 -9 -14 -39 15 l-34 33 23 24 22
24 12 -39 12 -38 -5 45 c-5 44 -4 46 46 88 l50 43 51 -16 c28 -9 52 -15 55
-13 2 3 -21 12 -51 22 l-54 17 -14 62 c-8 34 -13 63 -12 64 1 2 41 -11 90 -27
49 -17 94 -30 99 -29 6 0 -34 16 -88 35 -55 18 -103 39 -108 46 -12 20 -10 -8
7 -77 8 -33 14 -64 15 -70 0 -5 -22 -29 -49 -52 l-48 -42 -24 111 c-12 62 -24
107 -26 101 -2 -6 7 -58 20 -116 l24 -106 -29 -27 -28 -28 -28 28 -29 27 24
106 c13 58 22 110 20 116 -2 6 -14 -39 -27 -101 l-23 -111 -48 41 c-27 23 -49
46 -49 52 1 6 7 38 15 71 17 69 19 97 7 77 -5 -7 -53 -28 -108 -46 -54 -19
-94 -35 -88 -35 5 -1 50 12 99 29 49 16 89 29 90 27 1 -1 -4 -30 -12 -64 l-14
-62 -54 -17 c-30 -10 -53 -19 -51 -22 3 -2 27 4 55 13 l51 16 50 -43 c50 -42
51 -44 46 -88 l-5 -45 12 38 12 39 22 -24 23 -24 -34 -33 c-30 -29 -35 -31
-39 -15 -4 17 -5 17 -6 -2 0 -11 -8 -21 -16 -21 -8 0 -12 4 -10 8 3 4 -10 19
-27 34 -18 15 -77 68 -130 117 -53 49 -105 96 -115 104 -11 8 -13 13 -5 14 6
0 11 3 10 8 -2 6 127 128 260 246 l22 20 -5 -35 c-4 -28 -3 -26 8 9 8 29 25
55 52 78 22 18 42 34 46 34 3 0 23 -15 45 -34z m999 -1 c27 -23 44 -49 52 -77
11 -36 12 -37 8 -9 l-5 35 22 -20 c111 -98 257 -236 257 -241 0 -3 4 -9 9 -12
5 -3 -12 -25 -39 -49 l-49 -44 -64 22 c-64 21 -64 22 -75 68 -6 26 -13 60 -15
76 -5 31 -16 48 -16 25 0 -8 7 -41 15 -74 8 -33 14 -64 15 -70 0 -5 -22 -29
-49 -52 l-48 -42 -24 111 c-12 62 -24 107 -26 101 -2 -6 7 -58 20 -116 l24
-106 -29 -27 -28 -28 -28 28 -29 27 24 106 c13 58 22 110 20 116 -2 6 -14 -39
-26 -101 l-24 -111 -48 42 c-27 23 -49 47 -49 52 1 6 7 37 15 70 8 33 15 66
15 74 0 23 -11 6 -16 -25 -2 -16 -9 -50 -15 -76 -11 -46 -13 -48 -65 -65 -29
-9 -52 -18 -50 -21 3 -2 27 4 55 13 l51 16 50 -43 c50 -42 51 -44 46 -88 l-5
-45 12 38 12 39 22 -24 23 -24 -34 -33 c-30 -29 -35 -31 -39 -15 -4 15 -5 14
-6 -5 -1 -23 -1 -23 -38 10 -21 18 -84 74 -139 126 -56 52 -110 100 -120 108
-11 8 -14 14 -6 15 6 0 11 3 10 8 -3 6 76 80 251 239 14 12 28 20 33 17 4 -3
8 1 8 8 0 12 78 88 90 87 3 0 23 -15 45 -34z m-1587 -272 c-17 -18 -33 -31
-35 -29 -2 2 2 27 8 55 l11 53 24 -23 24 -23 -32 -33z m1090 -18 c29 -25 41
-47 50 -85 7 -28 12 -55 12 -60 0 -5 -25 -17 -55 -26 -52 -17 -58 -17 -111 0
l-56 17 6 42 c4 36 3 34 -9 -13 -8 -30 -13 -62 -11 -70 2 -8 4 -5 5 8 0 12 4
22 7 22 19 0 84 -24 84 -32 0 -4 7 -8 15 -8 9 0 12 -6 9 -15 -4 -8 -1 -15 5
-15 6 0 11 5 11 11 0 17 22 34 59 47 46 16 51 15 52 -10 0 -13 3 -18 5 -12 3
7 -2 40 -10 75 -8 35 -13 65 -11 67 1 2 38 -30 82 -70 43 -40 107 -99 141
-130 l64 -56 -123 38 c-67 21 -125 42 -128 47 -3 4 -22 9 -41 10 l-35 2 30
-11 c17 -6 31 -12 33 -13 6 -5 33 -128 30 -135 -2 -3 -24 -25 -49 -48 l-46
-42 -23 112 c-13 61 -25 107 -27 101 -2 -6 7 -58 20 -117 l24 -107 -25 -19
c-31 -25 -33 -25 -64 0 -25 19 -25 20 -11 81 8 34 12 66 10 73 -2 6 -9 -19
-16 -56 l-13 -68 -49 43 c-46 39 -48 44 -44 82 l4 40 -10 -37 c-10 -34 -16
-39 -65 -55 -29 -9 -52 -18 -50 -21 3 -2 27 4 55 13 l51 16 51 -42 c50 -43 51
-44 45 -89 l-5 -45 12 38 12 39 22 -24 23 -24 -34 -33 c-30 -29 -35 -31 -39
-15 -4 15 -5 14 -6 -5 -1 -27 17 -41 -184 143 -53 49 -105 94 -114 101 -15 11
-1 18 102 50 66 21 125 40 131 42 7 3 10 -6 8 -24 -4 -27 -3 -27 6 3 7 22 19
34 42 42 l33 10 -35 -1 c-19 -1 -38 -6 -41 -10 -3 -5 -61 -26 -128 -47 -68
-21 -121 -37 -119 -35 1 1 66 59 142 128 76 70 143 124 147 121 5 -3 9 1 9 9
0 16 74 87 90 87 5 0 27 -16 48 -35z m-1316 -113 c27 -9 47 -21 45 -27 -1 -5
-38 -43 -82 -84 -44 -40 -79 -77 -78 -81 1 -3 -5 -7 -13 -7 -8 0 -15 10 -15
21 -1 19 -2 19 -6 2 -4 -16 -9 -14 -39 15 l-34 33 23 24 22 24 12 -39 13 -38
-6 44 c-6 42 -5 44 42 87 27 24 54 43 59 43 6 0 31 -8 57 -17z m2000 0 c27 -9
47 -21 46 -27 -1 -5 -38 -43 -82 -83 -45 -41 -80 -77 -79 -81 1 -4 -5 -8 -13
-8 -7 0 -15 10 -15 21 -1 19 -2 19 -6 2 -4 -16 -9 -14 -39 15 l-34 33 23 24
22 24 12 -39 13 -38 -6 44 c-6 42 -5 44 42 87 27 24 54 43 59 43 6 0 31 -8 57
-17z m-1888 -189 c-7 -32 -13 -61 -14 -65 0 -4 -25 -15 -55 -24 -30 -10 -53
-19 -51 -22 3 -2 27 4 55 13 l51 16 51 -42 c50 -43 51 -44 45 -89 l-5 -45 12
38 12 39 22 -24 23 -24 -34 -33 c-30 -29 -35 -31 -39 -15 -4 15 -5 14 -6 -5
-1 -27 18 -41 -182 142 -53 48 -105 94 -115 101 -16 12 -5 18 106 54 69 22
128 41 132 41 3 1 0 -25 -8 -56z m1441 12 c107 -33 117 -38 101 -51 -10 -7
-62 -53 -115 -101 -200 -183 -181 -169 -182 -142 -1 19 -2 20 -6 5 -4 -16 -9
-14 -39 15 l-34 33 23 24 22 24 12 -39 12 -38 -5 45 c-6 45 -5 46 45 89 l51
42 51 -16 c28 -9 53 -15 55 -12 3 3 -20 12 -50 21 -31 9 -56 20 -56 24 -1 4
-7 33 -15 65 -10 43 -10 57 -2 54 7 -2 66 -21 132 -42z m263 2 c23 -23 42 -48
42 -55 0 -7 4 -10 10 -7 5 3 43 -25 82 -62 40 -37 102 -94 137 -126 36 -31 61
-57 56 -57 -20 0 -235 74 -235 81 0 5 -6 6 -13 3 -8 -3 -39 5 -70 16 l-57 21
-57 -21 c-31 -11 -62 -19 -70 -16 -7 3 -13 2 -13 -3 0 -8 -230 -86 -234 -79
-6 7 257 241 270 241 8 0 14 5 14 11 0 11 80 96 90 96 3 0 25 -19 48 -43z
m-1469 -291 c1 -17 -5 -14 -34 14 l-35 34 23 24 22 24 12 -39 c6 -21 12 -47
12 -57z"/>
<path d="M1866 2109 c-3 -17 -6 -35 -6 -39 0 -5 21 0 48 10 94 35 93 35 81 1
-6 -17 -9 -36 -6 -43 3 -7 6 -3 6 10 1 26 18 30 24 5 2 -10 2 -1 0 20 l-5 37
66 -24 c72 -26 75 -23 55 34 -7 21 -8 20 -4 -9 4 -25 2 -32 -9 -28 -8 3 -33
11 -55 18 -23 7 -37 15 -32 18 5 4 -8 6 -29 6 -21 0 -34 -2 -29 -6 5 -3 -9
-11 -32 -18 -22 -7 -47 -15 -55 -18 -11 -4 -13 2 -8 26 4 17 4 31 2 31 -3 0
-8 -14 -12 -31z"/>
<path d="M1735 2036 c-55 -19 -96 -35 -91 -35 10 -1 199 58 205 65 9 9 -18 2
-114 -30z"/>
<path d="M1440 1841 c44 -17 45 -18 44 -62 -1 -24 0 -34 3 -21 2 12 8 22 13
22 5 0 11 -10 13 -22 3 -13 4 -3 3 21 -1 44 0 45 44 62 55 22 39 25 -19 4 -36
-12 -46 -12 -82 0 -58 21 -74 18 -19 -4z"/>
<path d="M1260 1755 c-36 -13 -60 -24 -54 -24 5 -1 41 10 80 23 38 14 62 24
54 24 -8 0 -44 -10 -80 -23z"/>
<path d="M1714 1754 c39 -13 75 -24 80 -23 6 0 -20 11 -58 25 -39 13 -75 24
-80 23 -6 0 20 -11 58 -25z"/>
<path d="M866 2109 c-3 -17 -6 -35 -6 -39 0 -4 32 4 70 18 l70 25 70 -25 c76
-27 79 -25 59 32 -7 21 -8 20 -4 -9 4 -25 2 -32 -9 -28 -8 3 -33 11 -55 18
-23 7 -37 15 -32 18 5 4 -8 6 -29 6 -21 0 -34 -2 -29 -6 5 -3 -9 -11 -32 -18
-22 -7 -47 -15 -55 -18 -11 -4 -13 2 -8 26 4 17 4 31 2 31 -3 0 -8 -14 -12
-31z"/>
<path d="M1150 2067 c8 -8 201 -69 206 -65 2 2 -34 16 -79 30 -110 35 -133 42
-127 35z"/>
<path d="M2440 1841 c44 -17 45 -18 44 -62 -1 -24 0 -34 3 -21 2 12 8 22 13
22 5 0 11 -10 13 -22 3 -13 4 -3 3 21 -1 44 0 45 44 62 55 22 39 25 -19 4 -36
-12 -46 -12 -82 0 -58 21 -74 18 -19 -4z"/>
<path d="M2245 1750 c-44 -16 -75 -29 -70 -29 6 -1 49 12 95 28 47 16 78 29
70 29 -8 0 -51 -12 -95 -28z"/>
<path d="M2730 1749 c46 -16 89 -29 95 -28 5 0 -28 14 -75 30 -46 16 -89 29
-95 28 -5 0 28 -14 75 -30z"/>
<path d="M2841 1414 c-9 -40 -19 -58 -34 -65 -20 -9 -20 -9 4 -4 20 3 34 -4
64 -35 22 -22 44 -40 49 -40 6 0 -11 19 -38 43 l-49 43 13 52 c7 29 10 55 8
58 -3 2 -10 -21 -17 -52z"/>
<path d="M1108 1013 c-3 -13 -2 -23 2 -23 5 0 11 -10 13 -22 4 -20 4 -20 6 4
1 21 7 28 32 33 17 4 28 9 25 12 -3 3 -18 1 -35 -5 -25 -9 -30 -8 -33 6 -3 13
-5 12 -10 -5z"/>
<path d="M938 978 c17 -6 32 -14 32 -18 0 -4 -20 -13 -45 -20 -25 -7 -43 -15
-41 -18 3 -2 26 3 52 12 58 19 54 19 54 1 0 -8 5 -15 10 -15 6 0 10 7 10 15 0
18 -4 18 54 -1 26 -9 49 -14 52 -12 2 3 -16 11 -41 18 -53 15 -57 26 -12 36
17 4 27 9 20 11 -6 2 -26 -2 -45 -10 -27 -11 -39 -12 -68 -1 -19 7 -42 12 -50
12 -8 0 0 -5 18 -10z"/>
<path d="M1881 1018 c-1 -15 -5 -15 -32 -6 -16 6 -32 8 -35 5 -3 -3 8 -8 25
-12 25 -5 31 -12 32 -33 1 -21 2 -23 6 -7 3 11 9 22 13 25 4 3 4 14 -1 25 -6
16 -8 17 -8 3z"/>
<path d="M2108 1013 c-3 -13 -2 -23 2 -23 5 0 11 -10 13 -22 4 -20 4 -20 6 4
1 21 7 28 32 33 17 4 28 9 25 12 -3 3 -18 1 -35 -5 -25 -9 -30 -8 -33 6 -3 13
-5 12 -10 -5z"/>
<path d="M1938 978 c17 -6 32 -14 32 -18 0 -4 -20 -13 -45 -20 -25 -7 -43 -15
-41 -18 3 -2 26 3 52 12 58 19 54 19 54 1 0 -8 5 -15 10 -15 6 0 10 7 10 15 0
18 -4 18 54 -1 26 -9 49 -14 52 -12 2 3 -16 11 -41 18 -25 7 -45 16 -45 20 0
4 15 12 33 18 30 11 30 11 2 5 -16 -4 -46 -7 -65 -7 -19 0 -48 3 -65 7 -28 6
-28 6 3 -5z"/>
<path d="M1735 880 c-44 -16 -75 -29 -70 -29 6 -1 49 12 95 28 47 16 78 29 70
29 -8 0 -51 -12 -95 -28z"/>
<path d="M2240 879 c46 -16 89 -29 95 -28 5 0 -28 14 -75 30 -46 16 -89 29
-95 28 -5 0 28 -14 75 -30z"/>
<path d="M1886 464 c-7 -33 -9 -35 -39 -30 l-32 6 30 -13 c22 -9 30 -18 29
-35 -2 -20 -1 -20 3 -2 4 18 10 20 36 16 l32 -6 -28 11 c-26 10 -28 14 -22 50
8 49 0 52 -9 3z"/>
<path d="M2106 464 c5 -39 3 -43 -23 -53 l-28 -11 32 6 c27 4 32 2 36 -18 5
-21 5 -21 4 2 -2 19 5 28 28 37 l30 13 -31 -6 c-30 -5 -32 -3 -42 33 l-11 38
5 -41z"/>
<path d="M125 2111 c4 -25 2 -32 -9 -28 -8 3 -33 11 -55 18 -28 8 -38 15 -29
21 7 4 9 8 3 8 -5 0 -16 -4 -23 -9 -9 -5 10 -16 57 -33 77 -27 80 -25 60 32
-7 21 -8 20 -4 -9z"/>
<path d="M150 2067 c8 -8 201 -69 206 -65 2 2 -34 16 -79 30 -110 35 -133 42
-127 35z"/>
<path d="M2735 2036 c-55 -19 -96 -35 -91 -35 10 -1 199 58 205 65 9 9 -18 2
-114 -30z"/>
<path d="M440 1843 l45 -16 -50 -18 c-28 -10 -45 -18 -39 -18 6 -1 31 6 54 14
23 8 44 15 46 15 2 0 -2 -13 -7 -30 -6 -16 -9 -35 -6 -42 3 -7 6 -3 6 10 1 12
5 22 10 22 5 0 12 -10 14 -22 3 -13 4 -3 3 21 -1 44 0 45 44 62 55 22 39 25
-19 4 -36 -12 -46 -12 -82 0 -23 8 -47 15 -53 14 -6 0 9 -8 34 -16z"/>
<path d="M245 1750 c-44 -16 -75 -29 -70 -29 6 -1 49 12 95 28 47 16 78 29 70
29 -8 0 -51 -12 -95 -28z"/>
<path d="M730 1749 c46 -16 89 -29 95 -28 5 0 -28 14 -75 30 -46 16 -89 29
-95 28 -5 0 28 -14 75 -30z"/>
<path d="M865 1528 c-9 -28 -18 -35 -75 -54 -36 -12 -60 -23 -54 -23 6 -1 35
7 65 18 30 10 59 19 64 21 6 1 20 6 33 11 13 5 28 9 34 9 6 0 9 3 5 6 -3 4
-20 2 -36 -4 -30 -11 -30 -10 -24 19 7 39 0 37 -12 -3z"/>
<path d="M1865 1528 c-9 -28 -18 -35 -75 -54 -36 -12 -60 -23 -54 -23 6 -1 35
7 65 18 30 10 59 19 64 21 6 1 20 6 33 11 13 5 28 9 34 9 6 0 9 3 5 6 -3 4
-20 2 -36 -4 -30 -11 -30 -10 -24 19 7 39 0 37 -12 -3z"/>
<path d="M12 1475 c0 -11 6 -42 13 -70 7 -27 13 -41 13 -30 0 11 -6 43 -13 70
-7 28 -13 41 -13 30z"/>
<path d="M1971 1429 c-7 -33 -10 -63 -8 -65 2 -3 10 23 16 57 7 33 10 63 8 65
-2 3 -10 -23 -16 -57z"/>
<path d="M482 1246 c8 -6 13 -17 11 -23 -8 -23 12 -14 23 10 10 22 8 24 -19
24 -24 0 -27 -3 -15 -11z"/>
<path d="M1484 1233 c11 -24 31 -33 23 -10 -2 6 3 17 11 23 12 8 9 11 -15 11
-27 0 -29 -2 -19 -24z"/>
<path d="M2490 1224 c10 -18 24 -60 31 -93 6 -34 14 -59 16 -57 3 3 -2 39 -12
81 -12 54 -14 80 -6 89 8 10 4 13 -18 13 l-29 0 18 -33z"/>
<path d="M408 1225 c-26 -10 -38 -11 -38 -3 0 6 -2 9 -5 6 -6 -6 -10 -26 -18
-88 l-6 -45 12 47 c15 57 17 59 75 80 26 9 40 16 32 17 -8 0 -32 -7 -52 -14z"/>
<path d="M572 1222 c58 -21 60 -23 75 -80 l12 -47 -6 45 c-8 62 -12 82 -18 88
-3 3 -5 0 -5 -6 0 -8 -13 -7 -41 3 -23 8 -47 15 -53 14 -6 0 10 -8 36 -17z"/>
<path d="M1572 1222 c58 -21 60 -23 75 -80 l12 -47 -6 45 c-8 62 -12 82 -18
88 -3 3 -5 0 -5 -6 0 -8 -13 -7 -41 3 -23 8 -47 15 -53 14 -6 0 10 -8 36 -17z"/>
<path d="M2408 1225 c-26 -10 -38 -11 -38 -3 0 6 -2 9 -5 6 -6 -6 -10 -26 -18
-88 l-6 -45 12 47 c15 57 17 59 75 80 26 9 40 16 32 17 -8 0 -32 -7 -52 -14z"/>
<path d="M512 1185 c0 -11 6 -42 13 -70 7 -27 13 -41 13 -30 0 11 -6 43 -13
70 -7 28 -13 41 -13 30z"/>
<path d="M1471 1139 c-7 -33 -10 -63 -8 -65 2 -3 10 23 16 57 7 33 10 63 8 65
-2 3 -10 -23 -16 -57z"/>
<path d="M33 975 c-24 -10 -33 -20 -32 -37 1 -17 3 -18 6 -5 5 21 -1 20 57 1
26 -9 49 -14 52 -12 2 3 -16 11 -41 18 -25 7 -45 16 -45 20 0 4 15 12 33 18
17 5 25 10 17 11 -8 0 -30 -6 -47 -14z"/>
<path d="M2860 932 c0 -6 -45 -25 -100 -43 -54 -18 -97 -35 -95 -37 3 -3 116
31 182 55 8 3 9 -7 2 -38 -5 -23 -8 -47 -6 -53 2 -6 9 18 16 53 7 34 10 66 7
69 -3 3 -6 0 -6 -6z"/>
<path d="M106 464 c5 -39 3 -43 -23 -53 l-28 -11 32 6 c27 4 32 2 36 -18 5
-21 5 -21 4 2 -2 19 5 28 28 37 l30 13 -31 -6 c-30 -5 -32 -3 -42 33 l-11 38
5 -41z"/>
<path d="M936 369 c-27 -11 -55 -18 -63 -15 -7 3 -13 1 -13 -3 0 -5 -12 -14
-27 -20 l-28 -11 26 5 c24 4 26 2 23 -23 -4 -25 -3 -25 6 4 8 25 19 33 63 47
65 21 67 21 67 2 0 -8 4 -15 9 -15 5 0 12 -21 16 -46 3 -25 9 -43 12 -41 3 3
0 29 -6 58 -6 28 -9 54 -7 56 2 3 29 -3 60 -13 47 -15 58 -23 66 -48 9 -29 10
-29 6 -4 -3 25 -1 27 23 23 l26 -5 -27 11 c-16 6 -28 15 -28 20 0 4 -6 6 -14
3 -7 -3 -37 4 -67 15 -63 24 -60 25 -123 0z"/>
<path d="M2936 369 c-27 -11 -55 -18 -63 -15 -7 3 -13 1 -13 -3 0 -5 -12 -14
-27 -20 l-28 -11 26 5 c24 4 26 2 23 -23 -4 -25 -3 -25 6 4 8 25 19 33 63 47
66 21 65 21 70 0 3 -11 5 -7 6 10 1 31 2 31 -63 6z"/>
<path d="M0 185 c0 -8 6 -16 13 -16 6 -1 17 -2 22 -4 6 -1 20 -3 32 -3 19 -2
22 -6 16 -32 -4 -22 0 -36 12 -50 17 -19 31 -20 208 -19 172 1 190 2 208 20
10 10 19 32 19 49 l0 30 983 2 c540 2 994 2 1008 0 21 -2 25 -7 22 -26 -4 -17
3 -29 24 -43 25 -18 40 -20 137 -17 72 3 113 0 122 -7 10 -8 14 -8 14 -1 0 6
9 9 19 7 22 -4 51 32 51 65 0 17 6 20 45 20 38 0 45 3 45 20 0 20 -7 20 -1500
20 -1327 0 -1500 -2 -1500 -15z m184 -48 c3 3 6 -5 7 -18 0 -15 3 -19 6 -9 17
42 63 51 64 11 l0 -26 10 24 c7 18 12 21 23 12 7 -6 16 -8 20 -4 3 4 15 8 26
10 15 2 20 -3 20 -22 0 -17 -5 -25 -17 -25 -14 0 -15 2 -5 9 11 7 11 9 -2 14
-11 4 -16 1 -16 -11 0 -15 -2 -15 -10 -2 -6 10 -10 11 -10 3 0 -20 -80 -14
-81 6 -1 13 -2 13 -6 -1 -3 -11 -14 -18 -29 -18 -16 0 -24 6 -25 18 -1 16 -2
16 -6 0 -3 -12 -14 -18 -31 -18 -19 0 -23 3 -13 9 11 7 11 9 0 13 -7 2 -9 10
-5 16 10 17 24 15 29 -5 3 -13 5 -12 6 5 1 19 4 21 20 13 10 -6 21 -7 25 -4z
m222 0 c8 3 14 0 14 -6 0 -10 -14 -15 -34 -12 -5 1 -6 -5 -3 -14 4 -8 2 -15
-3 -15 -6 0 -10 14 -10 32 0 24 3 29 11 21 6 -6 18 -9 25 -6z m94 0 c11 3 20
0 20 -6 0 -6 -3 -10 -7 -10 -20 3 -25 -2 -14 -14 9 -11 1 -14 -44 -16 l-55 -1
25 26 c13 14 29 23 34 19 6 -3 11 0 12 7 0 9 2 9 5 2 3 -7 14 -10 24 -7z
m2150 -13 c0 -10 -14 -14 -50 -14 -37 0 -50 4 -50 14 0 11 13 15 50 14 36 0
50 -4 50 -14z m58 -1 c2 -8 -6 -13 -22 -13 -17 0 -26 5 -26 16 0 19 41 16 48
-3z m102 5 c0 -10 2 -10 8 -1 11 17 82 14 82 -3 0 -11 -20 -14 -90 -14 -73 0
-90 3 -90 15 0 11 12 15 45 15 29 0 45 -4 45 -12z"/>
<path d="M2593 48 c-2 -5 51 -8 118 -8 67 0 120 2 117 5 -8 9 -229 11 -235 3z"/>
</g>
</svg>
